<svg height="338" xmlns="http://www.w3.org/2000/svg" xmlns:xlink="http://www.w3.org/1999/xlink" width="392" viewBox="0 0 392 338"><defs/><g transform="translate(-90.00,-80.00)"><g transform="translate(91.000000,81.000000)" id="shape1"><path stroke-width="0" stroke="#000000" fill="none" d="M161.0,38.0L161.0,.0L.0,.0L.0,38.0L161.0,38.0z"/><text style="fill:#191919;font-family:Arial;font-size:12.00pt" xml:space="preserve"><tspan x="16.0" y="25.5">quantum chemistry</tspan></text></g><g transform="translate(204.000000,222.544000)" id="shape2"><path stroke-width="0" stroke="#000000" fill="none" d="M161.0,38.0L161.0,.0L.0,.0L.0,38.0L161.0,38.0z"/><text style="fill:#191919;font-family:Arial;font-size:12.00pt" xml:space="preserve"><tspan x="11.5" y="25.5">lewis acid and base</tspan></text></g><g transform="translate(211.000000,307.816200)" id="shape3"><path stroke-width="0" stroke="#000000" fill="none" d="M147.0,35.1L147.0,.0L.0,.0L.0,35.1L147.0,35.1z"/><text style="fill:#191919;font-family:Arial;font-size:12.00pt" xml:space="preserve"><tspan x="15.0" y="24.0">enzyme catalysis</tspan></text></g><g transform="translate(219.000000,382.175200)" id="shape4"><path stroke-width="0" stroke="#000000" fill="none" d="M131.0,35.1L131.0,.0L.0,.0L.0,35.1L131.0,35.1z"/><text style="fill:#191919;font-family:Arial;font-size:12.00pt" xml:space="preserve"><tspan x="11.5" y="24.0">nanotechnology</tspan></text></g><g transform="translate(171.500000,119.000000)" id="shape5"><path stroke-width="1" stroke="#191919" fill="none" d="M.0,.0L.0,55.0L113.0,55.0L113.0,97.5"/><path stroke-width="1" stroke="#191919" stroke-linecap="round" fill="#191919" d="M116.0,97.5L113.0,103.5L110.0,97.5L116.0,97.5"/></g><g transform="translate(320.000000,99.272000)" id="shape6"><path stroke-width="0" stroke="#000000" fill="none" d="M161.0,38.0L161.0,.0L.0,.0L.0,38.0L161.0,38.0z"/><text style="fill:#191919;font-family:Arial;font-size:12.00pt" xml:space="preserve"><tspan x="9.0" y="25.5">chemical experiment</tspan></text></g><g transform="translate(400.500000,137.272000)" id="shape7"><path stroke-width="1" stroke="#191919" fill="none" d="M.0,.0L.0,56.7L-116.0,56.7L-116.0,79.3"/><path stroke-width="1" stroke="#191919" stroke-linecap="round" fill="#191919" d="M-113.0,79.3L-116.0,85.3L-119.0,79.3L-113.0,79.3"/></g><g transform="translate(284.500000,260.544000)" id="shape8"><path stroke-width="1" stroke="#191919" fill="none" d="M.0,.0L.0,41.3"/><path stroke-width="1" stroke="#191919" stroke-linecap="round" fill="#191919" d="M3.0,41.3L.0,47.3L-3.0,41.3L3.0,41.3"/></g><g transform="translate(284.500000,342.903000)" id="shape9"><path stroke-width="1" stroke="#191919" fill="none" d="M.0,.0L.0,33.3"/><path stroke-width="1" stroke="#191919" stroke-linecap="round" fill="#191919" d="M3.0,33.3L.0,39.3L-3.0,33.3L3.0,33.3"/></g></g></svg>