<?xml version="1.0" encoding="utf-8"?>
<!-- Generator: Adobe Illustrator 15.0.0, SVG Export Plug-In . SVG Version: 6.00 Build 0)  -->
<!DOCTYPE svg PUBLIC "-//W3C//DTD SVG 1.1//EN" "http://www.w3.org/Graphics/SVG/1.1/DTD/svg11.dtd">
<svg version="1.1" id="Layer_1" xmlns="http://www.w3.org/2000/svg" xmlns:xlink="http://www.w3.org/1999/xlink" x="0px" y="0px"
	 width="3420px" height="1112px" viewBox="0 0 3420 1112" enable-background="new 0 0 3420 1112" xml:space="preserve">
<g>
	<g>
		<g>
			<path fill="#808000" d="M511.178,987.271c-115.705,0-224.486-45.059-306.303-126.874C123.059,778.58,78,669.799,78,554.093
				s45.059-224.487,126.875-306.303c81.817-81.817,190.598-126.876,306.303-126.876c115.706,0,224.486,45.059,306.303,126.876
				c81.817,81.815,126.875,190.597,126.875,306.303S899.298,778.58,817.481,860.396
				C735.664,942.212,626.884,987.271,511.178,987.271z"/>
			<path fill="#808000" d="M488.279,1051.632c-2.667,0-4.829-2.164-4.829-4.83c0-2.667,2.163-4.829,4.829-4.829
				c269.02,0,487.883-218.862,487.883-487.88c0-269.02-218.863-487.882-487.883-487.882c-2.667,0-4.829-2.163-4.829-4.83
				s2.163-4.83,4.829-4.83c274.345,0,497.541,223.197,497.541,497.541C985.82,828.438,762.625,1051.632,488.279,1051.632z"/>
			<circle fill="#808000" cx="511.066" cy="1046.805" r="30.392"/>
			<circle fill="#808000" cx="511.066" cy="61.382" r="30.392"/>
			<path fill="#808000" d="M1173.323,558.924H980.991c-2.667,0-4.829-2.164-4.829-4.831s2.162-4.829,4.829-4.829h192.333
				c2.667,0,4.829,2.162,4.829,4.829S1175.99,558.924,1173.323,558.924z"/>
			<path fill="#808000" d="M1108.588,624.633c-1.223,0-2.449-0.462-3.39-1.389c-1.898-1.872-1.921-4.929-0.051-6.828l61.347-62.273
				l-59.685-58.814c-1.9-1.872-1.922-4.93-0.049-6.827c1.87-1.901,4.927-1.925,6.828-0.054l63.125,62.207
				c1.899,1.871,1.922,4.93,0.05,6.827l-64.735,65.712C1111.083,624.152,1109.835,624.633,1108.588,624.633z"/>
		</g>
		<g opacity="0.6">
			<circle opacity="0" fill="#FFFFFF" cx="571.932" cy="629.511" r="383.078"/>
			<circle opacity="0.0385" fill="#F5F6F6" cx="569.595" cy="626.61" r="383.078"/>
			<circle opacity="0.0769" fill="#EBEEED" cx="567.259" cy="623.709" r="383.078"/>
			<circle opacity="0.1154" fill="#E2E5E4" cx="564.922" cy="620.809" r="383.078"/>
			<circle opacity="0.1538" fill="#D8DCDB" cx="562.585" cy="617.908" r="383.078"/>
			<circle opacity="0.1923" fill="#CED3D2" cx="560.249" cy="615.007" r="383.078"/>
			<circle opacity="0.2308" fill="#C4CBC9" cx="557.912" cy="612.106" r="383.078"/>
			<circle opacity="0.2692" fill="#BAC2C0" cx="555.575" cy="609.206" r="383.078"/>
			<circle opacity="0.3077" fill="#B1B9B7" cx="553.239" cy="606.305" r="383.077"/>
			<circle opacity="0.3462" fill="#A7B0AE" cx="550.902" cy="603.404" r="383.078"/>
			<circle opacity="0.3846" fill="#9DA8A5" cx="548.565" cy="600.504" r="383.077"/>
			<circle opacity="0.4231" fill="#939F9C" cx="546.229" cy="597.603" r="383.078"/>
			<circle opacity="0.4615" fill="#899693" cx="543.892" cy="594.702" r="383.077"/>
			<circle opacity="0.5" fill="#808E8B" cx="541.555" cy="591.802" r="383.078"/>
			<circle opacity="0.5385" fill="#768582" cx="539.219" cy="588.9" r="383.077"/>
			<circle opacity="0.5769" fill="#6C7C79" cx="536.882" cy="586" r="383.077"/>
			<circle opacity="0.6154" fill="#627370" cx="534.545" cy="583.099" r="383.078"/>
			<circle opacity="0.6538" fill="#586B67" cx="532.208" cy="580.198" r="383.077"/>
			<circle opacity="0.6923" fill="#4E625E" cx="529.872" cy="577.298" r="383.078"/>
			<circle opacity="0.7308" fill="#455955" cx="527.535" cy="574.396" r="383.077"/>
			<circle opacity="0.7692" fill="#3B504C" cx="525.198" cy="571.496" r="383.077"/>
			<circle opacity="0.8077" fill="#314843" cx="522.862" cy="568.596" r="383.077"/>
			<circle opacity="0.8462" fill="#273F3A" cx="520.525" cy="565.694" r="383.077"/>
			<circle opacity="0.8846" fill="#1D3631" cx="518.188" cy="562.794" r="383.077"/>
			<circle opacity="0.9231" fill="#142D28" cx="515.851" cy="559.894" r="383.077"/>
			<circle opacity="0.9615" fill="#0A251F" cx="513.515" cy="556.992" r="383.077"/>
			<circle fill="#001C16" cx="511.178" cy="554.092" r="383.077"/>
		</g>
		<circle fill="#FFFFFF" cx="511.178" cy="554.092" r="383.077"/>
		<rect x="249.196" y="280.986" fill="none" width="553.472" height="245.32"/>
		<text transform="matrix(1 0 0 1 332.6387 351.2852)"><tspan x="0" y="0" font-family="'SegoeUI-Semilight'" font-size="95">Quantum </tspan><tspan x="-10.02" y="114" font-family="'SegoeUI-Semilight'" font-size="95">Chemistry</tspan></text>
		<rect x="231.432" y="625" fill="none" width="563" height="229.427"/>
		<text transform="matrix(1 0 0 1 326.4341 695.2988)"><tspan x="0" y="0" font-family="'SegoeUI-Semilight'" font-size="95">Chemical   </tspan><tspan x="-42.792" y="114" font-family="'SegoeUI-Semilight'" font-size="95">experiment</tspan></text>
	</g>
	<g>
		<g>
			<path fill="#800000" d="M2261.299,842.878c-77.138,0-149.658-30.039-204.202-84.583
				c-54.545-54.544-84.583-127.065-84.583-204.202c0-77.138,30.038-149.658,84.583-204.202
				c54.544-54.545,127.064-84.584,204.202-84.584c77.137,0,149.657,30.039,204.202,84.584
				c54.544,54.544,84.583,127.064,84.583,204.202c0,77.137-30.039,149.658-84.583,204.202
				C2410.956,812.839,2338.436,842.878,2261.299,842.878z"/>
			<path fill="#800000" d="M2246.033,885.785c-1.778,0-3.22-1.442-3.22-3.22c0-1.778,1.441-3.22,3.22-3.22
				c179.346,0,325.254-145.908,325.254-325.253c0-179.347-145.908-325.255-325.254-325.255c-1.778,0-3.22-1.442-3.22-3.22
				s1.441-3.22,3.22-3.22c182.896,0,331.693,148.798,331.693,331.694C2577.727,736.989,2428.929,885.785,2246.033,885.785z"/>
			<circle fill="#800000" cx="2261.224" cy="882.566" r="20.261"/>
			<circle fill="#800000" cx="2261.224" cy="225.619" r="20.261"/>
			<path fill="#800000" d="M2702.729,557.313h-128.222c-1.778,0-3.22-1.441-3.22-3.22s1.441-3.22,3.22-3.22h128.222
				c1.777,0,3.22,1.441,3.22,3.22S2704.506,557.313,2702.729,557.313z"/>
			<path fill="#800000" d="M2659.572,601.119c-0.816,0-1.633-0.308-2.26-0.926c-1.267-1.248-1.281-3.286-0.034-4.552l40.897-41.516
				l-39.79-39.21c-1.267-1.248-1.281-3.287-0.032-4.552c1.247-1.268,3.285-1.283,4.552-0.035l42.083,41.471
				c1.267,1.248,1.281,3.286,0.034,4.552l-43.157,43.808C2661.235,600.799,2660.403,601.119,2659.572,601.119z"/>
		</g>
		<g opacity="0.6">
			<circle opacity="0" fill="#FFFFFF" cx="2301.801" cy="604.371" r="255.385"/>
			<circle opacity="0.0385" fill="#F5F6F6" cx="2300.243" cy="602.438" r="255.385"/>
			<circle opacity="0.0769" fill="#EBEEED" cx="2298.686" cy="600.504" r="255.385"/>
			<circle opacity="0.1154" fill="#E2E5E4" cx="2297.128" cy="598.569" r="255.385"/>
			<circle opacity="0.1538" fill="#D8DCDB" cx="2295.569" cy="596.636" r="255.385"/>
			<circle opacity="0.1923" fill="#CED3D2" cx="2294.012" cy="594.702" r="255.385"/>
			<circle opacity="0.2308" fill="#C4CBC9" cx="2292.454" cy="592.769" r="255.385"/>
			<circle opacity="0.2692" fill="#BAC2C0" cx="2290.896" cy="590.834" r="255.385"/>
			<circle opacity="0.3077" fill="#B1B9B7" cx="2289.339" cy="588.9" r="255.385"/>
			<circle opacity="0.3462" fill="#A7B0AE" cx="2287.781" cy="586.967" r="255.385"/>
			<circle opacity="0.3846" fill="#9DA8A5" cx="2286.223" cy="585.033" r="255.385"/>
			<circle opacity="0.4231" fill="#939F9C" cx="2284.665" cy="583.099" r="255.385"/>
			<circle opacity="0.4615" fill="#899693" cx="2283.107" cy="581.165" r="255.385"/>
			<circle opacity="0.5" fill="#808E8B" cx="2281.55" cy="579.231" r="255.385"/>
			<circle opacity="0.5385" fill="#768582" cx="2279.992" cy="577.298" r="255.385"/>
			<circle opacity="0.5769" fill="#6C7C79" cx="2278.435" cy="575.364" r="255.385"/>
			<circle opacity="0.6154" fill="#627370" cx="2276.877" cy="573.43" r="255.385"/>
			<circle opacity="0.6538" fill="#586B67" cx="2275.318" cy="571.496" r="255.385"/>
			<circle opacity="0.6923" fill="#4E625E" cx="2273.761" cy="569.563" r="255.385"/>
			<circle opacity="0.7308" fill="#455955" cx="2272.203" cy="567.629" r="255.385"/>
			<circle opacity="0.7692" fill="#3B504C" cx="2270.646" cy="565.694" r="255.385"/>
			<circle opacity="0.8077" fill="#314843" cx="2269.088" cy="563.761" r="255.385"/>
			<circle opacity="0.8462" fill="#273F3A" cx="2267.53" cy="561.827" r="255.385"/>
			<circle opacity="0.8846" fill="#1D3631" cx="2265.972" cy="559.894" r="255.385"/>
			<circle opacity="0.9231" fill="#142D28" cx="2264.414" cy="557.959" r="255.385"/>
			<circle opacity="0.9615" fill="#0A251F" cx="2262.856" cy="556.025" r="255.385"/>
			<circle fill="#001C16" cx="2261.299" cy="554.092" r="255.385"/>
		</g>
		<circle fill="#FFFFFF" cx="2261.299" cy="554.092" r="255.385"/>
	</g>
	<g>
		<g>
			<path fill="#198754" d="M1493.059,842.878c-77.137,0-149.657-30.039-204.202-84.583
				c-54.544-54.544-84.583-127.065-84.583-204.202c0-77.138,30.039-149.658,84.583-204.202
				c54.545-54.545,127.065-84.584,204.202-84.584s149.657,30.039,204.202,84.584c54.544,54.544,84.583,127.064,84.583,204.202
				c0,77.137-30.039,149.658-84.583,204.202C1642.716,812.839,1570.196,842.878,1493.059,842.878z"/>
			<path fill="#198754" d="M1477.793,885.785c-1.778,0-3.219-1.442-3.219-3.22c0-1.778,1.441-3.22,3.219-3.22
				c179.346,0,325.254-145.908,325.254-325.253c0-179.347-145.909-325.255-325.254-325.255c-1.778,0-3.219-1.442-3.219-3.22
				s1.441-3.22,3.219-3.22c182.896,0,331.693,148.798,331.693,331.694C1809.487,736.989,1660.689,885.785,1477.793,885.785z"/>
			<circle fill="#198754" cx="1492.984" cy="882.566" r="20.262"/>
			<circle fill="#198754" cx="1492.984" cy="225.619" r="20.262"/>
			<path fill="#198754" d="M1934.489,557.313h-128.222c-1.778,0-3.22-1.441-3.22-3.22s1.441-3.22,3.22-3.22h128.222
				c1.778,0,3.22,1.441,3.22,3.22S1936.268,557.313,1934.489,557.313z"/>
			<path fill="#198754" d="M1891.332,601.119c-0.815,0-1.632-0.308-2.26-0.926c-1.266-1.248-1.281-3.286-0.033-4.552l40.897-41.516
				l-39.79-39.21c-1.267-1.248-1.281-3.287-0.033-4.552c1.248-1.268,3.285-1.283,4.553-0.035l42.083,41.471
				c1.266,1.248,1.281,3.286,0.034,4.552l-43.157,43.808C1892.996,600.799,1892.164,601.119,1891.332,601.119z"/>
		</g>
		<g opacity="0.6">
			<circle opacity="0" fill="#FFFFFF" cx="1533.562" cy="604.371" r="255.385"/>
			<circle opacity="0.0385" fill="#F5F6F6" cx="1532.004" cy="602.438" r="255.385"/>
			<circle opacity="0.0769" fill="#EBEEED" cx="1530.446" cy="600.504" r="255.385"/>
			<circle opacity="0.1154" fill="#E2E5E4" cx="1528.888" cy="598.569" r="255.385"/>
			<circle opacity="0.1538" fill="#D8DCDB" cx="1527.33" cy="596.636" r="255.385"/>
			<circle opacity="0.1923" fill="#CED3D2" cx="1525.772" cy="594.702" r="255.385"/>
			<circle opacity="0.2308" fill="#C4CBC9" cx="1524.215" cy="592.769" r="255.385"/>
			<circle opacity="0.2692" fill="#BAC2C0" cx="1522.657" cy="590.834" r="255.385"/>
			<circle opacity="0.3077" fill="#B1B9B7" cx="1521.099" cy="588.9" r="255.385"/>
			<circle opacity="0.3462" fill="#A7B0AE" cx="1519.542" cy="586.967" r="255.385"/>
			<circle opacity="0.3846" fill="#9DA8A5" cx="1517.983" cy="585.033" r="255.385"/>
			<circle opacity="0.4231" fill="#939F9C" cx="1516.426" cy="583.1" r="255.385"/>
			<circle opacity="0.4615" fill="#899693" cx="1514.868" cy="581.165" r="255.385"/>
			<circle opacity="0.5" fill="#808E8B" cx="1513.31" cy="579.231" r="255.385"/>
			<circle opacity="0.5385" fill="#768582" cx="1511.752" cy="577.298" r="255.385"/>
			<circle opacity="0.5769" fill="#6C7C79" cx="1510.195" cy="575.364" r="255.385"/>
			<circle opacity="0.6154" fill="#627370" cx="1508.637" cy="573.43" r="255.385"/>
			<circle opacity="0.6538" fill="#586B67" cx="1507.079" cy="571.496" r="255.385"/>
			<circle opacity="0.6923" fill="#4E625E" cx="1505.521" cy="569.563" r="255.385"/>
			<circle opacity="0.7308" fill="#455955" cx="1503.963" cy="567.629" r="255.385"/>
			<circle opacity="0.7692" fill="#3B504C" cx="1502.406" cy="565.695" r="255.385"/>
			<circle opacity="0.8077" fill="#314843" cx="1500.848" cy="563.761" r="255.385"/>
			<circle opacity="0.8462" fill="#273F3A" cx="1499.29" cy="561.827" r="255.385"/>
			<circle opacity="0.8846" fill="#1D3631" cx="1497.732" cy="559.894" r="255.385"/>
			<circle opacity="0.9231" fill="#142D28" cx="1496.175" cy="557.96" r="255.385"/>
			<circle opacity="0.9615" fill="#0A251F" cx="1494.617" cy="556.025" r="255.385"/>
			<circle fill="#001C16" cx="1493.059" cy="554.092" r="255.385"/>
		</g>
		<circle fill="#FFFFFF" cx="1493.059" cy="554.092" r="255.385"/>
	</g>
	<g>
		<g>
			<path fill="#FF3333" d="M3029.538,842.878c-77.137,0-149.657-30.039-204.202-84.583s-84.583-127.065-84.583-204.202
				c0-77.138,30.038-149.658,84.583-204.202c54.545-54.545,127.065-84.584,204.202-84.584s149.657,30.039,204.202,84.584
				c54.544,54.544,84.583,127.064,84.583,204.202c0,77.137-30.039,149.658-84.583,204.202
				C3179.195,812.839,3106.675,842.878,3029.538,842.878z"/>
			<path fill="#FF3333" d="M3014.272,885.785c-1.778,0-3.22-1.442-3.22-3.22c0-1.778,1.441-3.22,3.22-3.22
				c179.346,0,325.255-145.908,325.255-325.253c0-179.347-145.909-325.255-325.255-325.255c-1.778,0-3.22-1.442-3.22-3.22
				s1.441-3.22,3.22-3.22c182.896,0,331.693,148.798,331.693,331.694C3345.966,736.989,3197.168,885.785,3014.272,885.785z"/>
			<circle fill="#FF3333" cx="3029.463" cy="882.566" r="20.261"/>
			<circle fill="#FF3333" cx="3029.463" cy="225.619" r="20.261"/>
		</g>
		<g opacity="0.6">
			<circle opacity="0" fill="#FFFFFF" cx="3070.041" cy="604.371" r="255.385"/>
			<circle opacity="0.0385" fill="#F5F6F6" cx="3068.483" cy="602.438" r="255.385"/>
			<circle opacity="0.0769" fill="#EBEEED" cx="3066.926" cy="600.504" r="255.385"/>
			<circle opacity="0.1154" fill="#E2E5E4" cx="3065.367" cy="598.569" r="255.385"/>
			<circle opacity="0.1538" fill="#D8DCDB" cx="3063.81" cy="596.636" r="255.385"/>
			<circle opacity="0.1923" fill="#CED3D2" cx="3062.252" cy="594.702" r="255.385"/>
			<circle opacity="0.2308" fill="#C4CBC9" cx="3060.694" cy="592.769" r="255.385"/>
			<circle opacity="0.2692" fill="#BAC2C0" cx="3059.137" cy="590.834" r="255.385"/>
			<circle opacity="0.3077" fill="#B1B9B7" cx="3057.578" cy="588.9" r="255.385"/>
			<circle opacity="0.3462" fill="#A7B0AE" cx="3056.021" cy="586.967" r="255.385"/>
			<circle opacity="0.3846" fill="#9DA8A5" cx="3054.463" cy="585.033" r="255.385"/>
			<circle opacity="0.4231" fill="#939F9C" cx="3052.905" cy="583.099" r="255.385"/>
			<circle opacity="0.4615" fill="#899693" cx="3051.348" cy="581.165" r="255.385"/>
			<circle opacity="0.5" fill="#808E8B" cx="3049.79" cy="579.231" r="255.385"/>
			<circle opacity="0.5385" fill="#768582" cx="3048.231" cy="577.298" r="255.385"/>
			<circle opacity="0.5769" fill="#6C7C79" cx="3046.674" cy="575.364" r="255.385"/>
			<circle opacity="0.6154" fill="#627370" cx="3045.116" cy="573.43" r="255.385"/>
			<circle opacity="0.6538" fill="#586B67" cx="3043.559" cy="571.496" r="255.385"/>
			<circle opacity="0.6923" fill="#4E625E" cx="3042.001" cy="569.563" r="255.385"/>
			<circle opacity="0.7308" fill="#455955" cx="3040.442" cy="567.629" r="255.385"/>
			<circle opacity="0.7692" fill="#3B504C" cx="3038.885" cy="565.694" r="255.385"/>
			<circle opacity="0.8077" fill="#314843" cx="3037.327" cy="563.761" r="255.385"/>
			<circle opacity="0.8462" fill="#273F3A" cx="3035.77" cy="561.827" r="255.385"/>
			<circle opacity="0.8846" fill="#1D3631" cx="3034.212" cy="559.894" r="255.385"/>
			<circle opacity="0.9231" fill="#142D28" cx="3032.653" cy="557.959" r="255.385"/>
			<circle opacity="0.9615" fill="#0A251F" cx="3031.096" cy="556.025" r="255.385"/>
			<circle fill="#001C16" cx="3029.538" cy="554.092" r="255.385"/>
		</g>
		<circle fill="#FFFFFF" cx="3029.538" cy="554.092" r="255.385"/>
	</g>
</g>
<path fill="#808000" d="M815.299,559.231H204.196c-8.472,0-15.342-2.303-15.342-5.138c0-2.838,6.87-5.138,15.342-5.138h611.103
	c8.475,0,15.343,2.3,15.343,5.138C830.642,556.929,823.773,559.231,815.299,559.231z"/>
<rect x="1257.414" y="464" fill="none" width="452.586" height="202.307"/>
<text transform="matrix(1 0 0 1 1299.5537 526.8994)"><tspan x="0" y="0" font-family="'SegoeUI-Semilight'" font-size="85">Lewis acid </tspan><tspan x="18.656" y="102" font-family="'SegoeUI-Semilight'" font-size="85">and base</tspan></text>
<rect x="2030.006" y="458.94" fill="none" width="452.586" height="202.307"/>
<text transform="matrix(1 0 0 1 2114.584 521.8398)"><tspan x="0" y="0" font-family="'SegoeUI-Semilight'" font-size="85">Enzyme   </tspan><tspan x="-7.057" y="102" font-family="'SegoeUI-Semilight'" font-size="85">catalysis</tspan></text>
<rect x="2803.244" y="454.847" fill="none" width="452.587" height="202.307"/>
<text transform="matrix(1 0 0 1 2912.5801 517.7461)"><tspan x="0" y="0" font-family="'SegoeUI-Semilight'" font-size="85">Nano-  </tspan><tspan x="-86.931" y="102" font-family="'SegoeUI-Semilight'" font-size="85">technology</tspan></text>
</svg>
